<svg width="60" height="64" viewBox="0 0 60 64" fill="none" xmlns="http://www.w3.org/2000/svg">
<path d="M57.0705 51.6562C55.5968 48.1654 53.4581 44.9946 50.7736 42.3203C48.0973 39.6384 44.927 37.5 41.4377 36.0234C41.4064 36.0078 41.3752 36 41.3439 35.9844C46.2111 32.4688 49.3752 26.7422 49.3752 20.2812C49.3752 9.57812 40.7033 0.90625 30.0002 0.90625C19.2971 0.90625 10.6252 9.57812 10.6252 20.2812C10.6252 26.7422 13.7893 32.4687 18.6564 35.9922C18.6252 36.0078 18.5939 36.0156 18.5627 36.0312C15.0627 37.5078 11.9221 39.625 9.22676 42.3281C6.5448 45.0044 4.40648 48.1748 2.92988 51.6641C1.47927 55.0801 0.696929 58.7425 0.625195 62.4531C0.62311 62.5365 0.637735 62.6195 0.66821 62.6971C0.698684 62.7747 0.74439 62.8455 0.802636 62.9052C0.860882 62.9649 0.930488 63.0123 1.00735 63.0447C1.08422 63.0771 1.16679 63.0938 1.2502 63.0938H5.9377C6.28145 63.0938 6.55488 62.8203 6.5627 62.4844C6.71895 56.4531 9.14082 50.8047 13.4221 46.5234C17.8518 42.0938 23.7346 39.6562 30.0002 39.6562C36.2658 39.6562 42.1486 42.0938 46.5783 46.5234C50.8596 50.8047 53.2814 56.4531 53.4377 62.4844C53.4455 62.8281 53.7189 63.0938 54.0627 63.0938H58.7502C58.8336 63.0938 58.9162 63.0771 58.993 63.0447C59.0699 63.0123 59.1395 62.9649 59.1978 62.9052C59.256 62.8455 59.3017 62.7747 59.3322 62.6971C59.3627 62.6195 59.3773 62.5365 59.3752 62.4531C59.2971 58.7188 58.5236 55.0859 57.0705 51.6562ZM30.0002 33.7188C26.4143 33.7188 23.0393 32.3203 20.5002 29.7812C17.9611 27.2422 16.5627 23.8672 16.5627 20.2812C16.5627 16.6953 17.9611 13.3203 20.5002 10.7812C23.0393 8.24219 26.4143 6.84375 30.0002 6.84375C33.5861 6.84375 36.9611 8.24219 39.5002 10.7812C42.0393 13.3203 43.4377 16.6953 43.4377 20.2812C43.4377 23.8672 42.0393 27.2422 39.5002 29.7812C36.9611 32.3203 33.5861 33.7188 30.0002 33.7188Z" fill="#5967D1"/>
</svg>
