<svg width="64" height="64" viewBox="0 0 64 64" fill="none" xmlns="http://www.w3.org/2000/svg">
<path d="M60.5234 10.6484L52.2031 2.33594C51.1875 1.32031 49.8281 0.75 48.3906 0.75C46.9531 0.75 45.5938 1.3125 44.5781 2.33594L35.6172 11.2812C34.6016 12.2969 34.0312 13.6641 34.0312 15.1016C34.0312 16.5469 34.5938 17.8984 35.6172 18.9219L42.6172 25.9297C41.0225 29.6452 38.7313 33.0211 35.8672 35.875C33 38.7578 29.6484 41.0312 25.9297 42.6406L18.9297 35.6328C17.9141 34.6172 16.5547 34.0469 15.1172 34.0469C14.4081 34.0443 13.7057 34.1832 13.0511 34.4555C12.3964 34.7278 11.8027 35.1281 11.3047 35.6328L2.33594 44.5781C1.32031 45.5938 0.75 46.9609 0.75 48.3984C0.75 49.8438 1.3125 51.1953 2.33594 52.2188L10.6484 60.5312C12.3828 62.2656 14.7734 63.2578 17.2266 63.2578C17.7344 63.2578 18.2266 63.2188 18.7266 63.1328C29.0703 61.4297 39.3359 55.9219 47.625 47.6406C55.9062 39.3438 61.4062 29.0781 63.125 18.7266C63.6172 15.7891 62.6328 12.7656 60.5234 10.6484ZM57.5859 17.7969C56.0625 27.0078 51.1094 36.1953 43.6484 43.6562C36.1875 51.1172 27.0078 56.0703 17.7969 57.5938C16.6406 57.7891 15.4531 57.3984 14.6094 56.5625L6.44531 48.3984L15.1016 39.7344L24.4609 49.1094L24.5312 49.1797L26.2188 48.5547C31.3354 46.6735 35.9818 43.7022 39.8359 39.8467C43.69 35.9913 46.6596 31.3438 48.5391 26.2266L49.1641 24.5391L39.7266 15.1094L48.3828 6.44531L56.5469 14.6094C57.3906 15.4531 57.7812 16.6406 57.5859 17.7969Z" fill="#5967D1"/>
</svg>
