<svg width="69" height="64" viewBox="0 0 69 64" fill="none" xmlns="http://www.w3.org/2000/svg">
<path d="M66.1016 44.8359H19.5781L21.9141 40.0781L60.7266 40.0078C62.0391 40.0078 63.1641 39.0703 63.3984 37.7734L68.7734 7.6875C68.9141 6.89844 68.7031 6.08594 68.1875 5.46875C67.9327 5.165 67.6148 4.92033 67.2559 4.7517C66.8971 4.58306 66.5059 4.49451 66.1094 4.49219L16.7344 4.32812L16.3125 2.34375C16.0469 1.07812 14.9062 0.15625 13.6094 0.15625H1.53906C0.807645 0.15625 0.106185 0.446804 -0.411005 0.963994C-0.928196 1.48118 -1.21875 2.18265 -1.21875 2.91406C-1.21875 3.64548 -0.928196 4.34694 -0.411005 4.86413C0.106185 5.38132 0.807645 5.67188 1.53906 5.67188H11.375L13.2188 14.4375L17.7578 36.4141L11.9141 45.9531C11.6106 46.3627 11.4278 46.8491 11.3864 47.3572C11.345 47.8652 11.4466 48.3748 11.6797 48.8281C12.1484 49.7578 13.0937 50.3438 14.1406 50.3438H19.0469C18.0009 51.733 17.436 53.4251 17.4375 55.1641C17.4375 59.5859 21.0312 63.1797 25.4531 63.1797C29.875 63.1797 33.4688 59.5859 33.4688 55.1641C33.4688 53.4219 32.8906 51.7266 31.8594 50.3438H44.4453C43.3994 51.733 42.8344 53.4251 42.8359 55.1641C42.8359 59.5859 46.4297 63.1797 50.8516 63.1797C55.2734 63.1797 58.8672 59.5859 58.8672 55.1641C58.8672 53.4219 58.2891 51.7266 57.2578 50.3438H66.1094C67.625 50.3438 68.8672 49.1094 68.8672 47.5859C68.8626 46.8553 68.5693 46.1561 68.0512 45.6409C67.5331 45.1257 66.8322 44.8363 66.1016 44.8359ZM17.8828 9.76562L62.8672 9.91406L58.4609 34.5859L23.125 34.6484L17.8828 9.76562ZM25.4531 57.6328C24.0938 57.6328 22.9844 56.5234 22.9844 55.1641C22.9844 53.8047 24.0938 52.6953 25.4531 52.6953C26.8125 52.6953 27.9219 53.8047 27.9219 55.1641C27.9219 55.8188 27.6618 56.4468 27.1988 56.9097C26.7358 57.3727 26.1079 57.6328 25.4531 57.6328ZM50.8516 57.6328C49.4922 57.6328 48.3828 56.5234 48.3828 55.1641C48.3828 53.8047 49.4922 52.6953 50.8516 52.6953C52.2109 52.6953 53.3203 53.8047 53.3203 55.1641C53.3203 55.8188 53.0602 56.4468 52.5972 56.9097C52.1343 57.3727 51.5063 57.6328 50.8516 57.6328Z" fill="#5967D1"/>
</svg>
