<svg width="72" height="72" viewBox="0 0 72 72" fill="none" xmlns="http://www.w3.org/2000/svg">
<path d="M19.333 69.3333H52.6663" stroke="#5967D1" stroke-width="5" stroke-linecap="round" stroke-linejoin="round"/>
<path d="M2.6665 52.6666V9.33329C2.6665 7.56518 3.36888 5.86949 4.61913 4.61925C5.86937 3.369 7.56506 2.66663 9.33317 2.66663H62.6665C64.4346 2.66663 66.1303 3.369 67.3805 4.61925C68.6308 5.86949 69.3332 7.56518 69.3332 9.33329V52.6666C69.3332 54.4347 68.6308 56.1304 67.3805 57.3807C66.1303 58.6309 64.4346 59.3333 62.6665 59.3333H9.33317C7.56506 59.3333 5.86937 58.6309 4.61913 57.3807C3.36888 56.1304 2.6665 54.4347 2.6665 52.6666Z" stroke="#5967D1" stroke-width="5"/>
<path d="M21.1 40.2C19.6333 40.2 18.3733 39.9067 17.32 39.32C16.28 38.72 15.48 37.88 14.92 36.8C14.36 35.7067 14.08 34.42 14.08 32.94C14.08 31.8333 14.24 30.84 14.56 29.96C14.88 29.0667 15.34 28.3067 15.94 27.68C16.54 27.04 17.2733 26.5533 18.14 26.22C19.02 25.8733 20.0067 25.7 21.1 25.7C21.8333 25.7 22.5533 25.7933 23.26 25.98C23.9667 26.1667 24.5867 26.4333 25.12 26.78C25.4 26.9533 25.5867 27.1667 25.68 27.42C25.7733 27.66 25.7933 27.9 25.74 28.14C25.6867 28.3667 25.5733 28.56 25.4 28.72C25.24 28.88 25.0333 28.9733 24.78 29C24.54 29.0133 24.2733 28.9267 23.98 28.74C23.5667 28.4733 23.12 28.28 22.64 28.16C22.16 28.04 21.6733 27.98 21.18 27.98C20.2333 27.98 19.4333 28.1733 18.78 28.56C18.1267 28.9467 17.6333 29.5067 17.3 30.24C16.9667 30.9733 16.8 31.8733 16.8 32.94C16.8 33.9933 16.9667 34.8933 17.3 35.64C17.6333 36.3867 18.1267 36.9533 18.78 37.34C19.4333 37.7267 20.2333 37.92 21.18 37.92C21.6867 37.92 22.1867 37.86 22.68 37.74C23.1733 37.6067 23.64 37.4067 24.08 37.14C24.3733 36.9667 24.6333 36.8933 24.86 36.92C25.1 36.9333 25.3 37.0133 25.46 37.16C25.62 37.3067 25.7267 37.4933 25.78 37.72C25.8333 37.9333 25.82 38.16 25.74 38.4C25.66 38.6267 25.5 38.8267 25.26 39C24.7267 39.3867 24.0867 39.6867 23.34 39.9C22.6067 40.1 21.86 40.2 21.1 40.2ZM30.2138 40.16C29.8004 40.16 29.4804 40.0467 29.2538 39.82C29.0404 39.58 28.9338 39.2533 28.9338 38.84V27.2C28.9338 26.7733 29.0471 26.4533 29.2738 26.24C29.5004 26.0133 29.8204 25.9 30.2338 25.9H35.0538C36.6004 25.9 37.7938 26.2733 38.6338 27.02C39.4738 27.7533 39.8938 28.7867 39.8938 30.12C39.8938 30.9867 39.7004 31.7333 39.3138 32.36C38.9404 32.9867 38.3938 33.4667 37.6738 33.8C36.9538 34.1333 36.0804 34.3 35.0538 34.3L35.2338 34H35.8938C36.4404 34 36.9138 34.1333 37.3138 34.4C37.7271 34.6667 38.0871 35.0867 38.3938 35.66L39.8938 38.44C40.0538 38.72 40.1271 38.9933 40.1138 39.26C40.1004 39.5267 40.0004 39.7467 39.8138 39.92C39.6271 40.08 39.3538 40.16 38.9938 40.16C38.6338 40.16 38.3404 40.0867 38.1138 39.94C37.8871 39.78 37.6871 39.54 37.5138 39.22L35.4938 35.5C35.2538 35.0467 34.9671 34.7467 34.6338 34.6C34.3138 34.44 33.9004 34.36 33.3938 34.36H31.4938V38.84C31.4938 39.2533 31.3871 39.58 31.1738 39.82C30.9604 40.0467 30.6404 40.16 30.2138 40.16ZM31.4938 32.46H34.6138C35.5338 32.46 36.2271 32.2733 36.6938 31.9C37.1738 31.5133 37.4138 30.94 37.4138 30.18C37.4138 29.4333 37.1738 28.8733 36.6938 28.5C36.2271 28.1133 35.5338 27.92 34.6138 27.92H31.4938V32.46ZM44.6447 40.16C44.2714 40.16 43.9847 40.0533 43.7847 39.84C43.5847 39.6267 43.4847 39.3333 43.4847 38.96V26.94C43.4847 26.5533 43.5914 26.26 43.8047 26.06C44.018 25.8467 44.3114 25.74 44.6847 25.74C45.018 25.74 45.278 25.8067 45.4647 25.94C45.6647 26.06 45.8447 26.2733 46.0047 26.58L50.9447 35.72H50.3047L55.2447 26.58C55.4047 26.2733 55.578 26.06 55.7647 25.94C55.9514 25.8067 56.2114 25.74 56.5447 25.74C56.918 25.74 57.2047 25.8467 57.4047 26.06C57.6047 26.26 57.7047 26.5533 57.7047 26.94V38.96C57.7047 39.3333 57.6047 39.6267 57.4047 39.84C57.218 40.0533 56.9314 40.16 56.5447 40.16C56.1714 40.16 55.8847 40.0533 55.6847 39.84C55.4847 39.6267 55.3847 39.3333 55.3847 38.96V29.7H55.8247L51.6247 37.36C51.4914 37.5867 51.3514 37.7533 51.2047 37.86C51.058 37.9667 50.858 38.02 50.6047 38.02C50.3514 38.02 50.1447 37.9667 49.9847 37.86C49.8247 37.74 49.6847 37.5733 49.5647 37.36L45.3247 29.68H45.8047V38.96C45.8047 39.3333 45.7047 39.6267 45.5047 39.84C45.318 40.0533 45.0314 40.16 44.6447 40.16Z" fill="#5967D1"/>
</svg>
