<svg width="70" height="70" viewBox="0 0 70 70" fill="none" xmlns="http://www.w3.org/2000/svg">
<path d="M18.1111 54.9777C19.0399 54.7783 19.8942 54.323 20.5776 53.6632C21.2609 53.0034 21.746 52.1656 21.9778 51.2444C23.1778 50.9333 24.3334 50.5333 25.5111 50.1111V47.4444C25.5204 47.0633 25.565 46.6839 25.6445 46.3111C24.3227 46.8444 22.9725 47.3043 21.6 47.6888C21.1205 46.7396 20.3544 45.9654 19.4103 45.4758C18.4662 44.9862 17.392 44.8061 16.3399 44.9609C15.2878 45.1158 14.311 45.5978 13.5481 46.3387C12.7851 47.0796 12.2746 48.0417 12.0889 49.0888H11.0889C7.20115 44.5756 4.94665 38.8846 4.68892 32.9333C7.67528 28.7477 11.4495 25.1849 15.8 22.4444C16.4473 23.1066 17.2671 23.5741 18.1666 23.7941C19.066 24.014 20.0091 23.9776 20.8889 23.6888C23.4962 27.9662 26.8625 31.7317 30.8223 34.8C30.9673 34.6133 31.1231 34.4352 31.2889 34.2666L33.4 32.2444C29.5223 29.352 26.2399 25.7376 23.7334 21.6C24.2371 20.8014 24.5066 19.8775 24.5111 18.9333V18.4444C32.636 15.7141 41.4307 15.7141 49.5556 18.4444C48.9564 20.9984 48.1002 23.4851 47 25.8666H50.8889C51.7143 23.9056 52.3903 21.8851 52.9111 19.8222C53.8667 20.2444 54.7778 20.7333 55.7111 21.2444C56.9844 24.1185 57.7369 27.1959 57.9334 30.3333C58.7713 29.8644 59.7074 29.598 60.6667 29.5555C61.1778 29.5656 61.6855 29.6403 62.1778 29.7777C61.7856 23.7835 59.6663 18.031 56.076 13.2149C52.4858 8.39877 47.578 4.72506 41.9453 2.63739C36.3127 0.549713 30.1961 0.137354 24.3342 1.45011C18.4724 2.76286 13.1159 5.74459 8.91165 10.0352C4.70742 14.3258 1.83525 19.7418 0.641975 25.6292C-0.551295 31.5166 -0.0146291 37.6235 2.18716 43.2125C4.38896 48.8015 8.16171 53.6336 13.0498 57.1252C17.938 60.6168 23.7324 62.6186 29.7334 62.8888C29.1689 61.4611 29.1689 59.8721 29.7334 58.4444C25.6435 58.2024 21.6653 57.0158 18.1111 54.9777ZM31.2445 5.11107C34.8158 5.11646 38.3497 5.83917 41.6364 7.23632C44.9231 8.63346 47.8957 10.6766 50.3778 13.2444C50.3778 13.8 50.3778 14.3777 50.2 14.9333C41.2744 11.9916 31.6274 12.0775 22.7556 15.1777C22.0013 14.5324 21.074 14.1228 20.0889 14C19.4941 12.1633 19.0409 10.2837 18.7334 8.37773C22.5699 6.27205 26.8683 5.14973 31.2445 5.11107ZM15.4667 10.3555C15.7541 11.796 16.1176 13.2202 16.5556 14.6222C15.8286 15.0774 15.2291 15.7096 14.8132 16.4598C14.3974 17.2099 14.1787 18.0534 14.1778 18.9111C14.1778 18.9111 14.1778 19.1333 14.1778 19.2444C10.8201 21.357 7.76925 23.9218 5.11114 26.8666C6.35606 20.2535 10.0552 14.3555 15.4667 10.3555Z" fill="#5967D1"/>
<path d="M49.5555 41.0889C47.8689 41.1065 46.2252 41.6236 44.8323 42.5749C43.4394 43.5261 42.3596 44.8688 41.7293 46.4334C41.0991 47.998 40.9467 49.7143 41.2914 51.3655C41.6361 53.0166 42.4623 54.5286 43.6659 55.7104C44.8694 56.8922 46.3962 57.6909 48.0533 58.0054C49.7105 58.32 51.4237 58.1363 52.9766 57.4777C54.5294 56.8191 55.8523 55.7151 56.778 54.305C57.7037 52.895 58.1908 51.2423 58.1777 49.5556C58.1427 47.294 57.2181 45.1374 55.6043 43.5526C53.9905 41.9679 51.8173 41.0828 49.5555 41.0889ZM49.5555 54.6C48.5778 54.5825 47.627 54.2773 46.8216 53.7227C46.0163 53.1682 45.3921 52.3886 45.027 51.4815C44.662 50.5744 44.5721 49.5798 44.7688 48.622C44.9654 47.6641 45.4398 46.7854 46.1328 46.0955C46.8257 45.4056 47.7065 44.935 48.6653 44.7426C49.624 44.5502 50.6181 44.6444 51.5236 45.0134C52.4291 45.3825 53.2059 46.0101 53.7569 46.8179C54.308 47.6256 54.6089 48.5778 54.6222 49.5556C54.6252 50.2207 54.496 50.8798 54.2421 51.4946C53.9883 52.1095 53.6148 52.6677 53.1434 53.137C52.6721 53.6063 52.1122 53.9773 51.4963 54.2285C50.8803 54.4796 50.2207 54.6059 49.5555 54.6Z" fill="#5967D1"/>
<path d="M69.9334 47.6445C69.9551 47.1269 69.8177 46.615 69.5395 46.1779C69.2614 45.7408 68.8559 45.3995 68.3778 45.2L64.9111 44.1778C64.7482 43.7037 64.5556 43.2371 64.3334 42.7778L65.9334 39.8223C66.1847 39.3414 66.2751 38.7925 66.1911 38.2564C66.1071 37.7203 65.8531 37.2254 65.4667 36.8445L62.4889 33.9111C62.1054 33.5283 61.6092 33.2786 61.0732 33.1986C60.5372 33.1186 59.9897 33.2126 59.5111 33.4667L56.5334 35.0445C56.0477 34.8124 55.5508 34.6048 55.0445 34.4223L54 31.1334C53.8247 30.6376 53.4995 30.2086 53.0695 29.906C52.6394 29.6034 52.1259 29.4421 51.6 29.4445H47.3334C46.7966 29.4483 46.2749 29.6226 45.8435 29.9421C45.4122 30.2616 45.0934 30.7099 44.9334 31.2223L43.9556 34.4C43.4418 34.582 42.9374 34.7897 42.4445 35.0223L39.5111 33.4667C39.0373 33.215 38.4957 33.1203 37.9646 33.1962C37.4334 33.2721 36.94 33.5146 36.5556 33.8889L33.5111 36.8C33.1197 37.1826 32.8627 37.6816 32.7786 38.2224C32.6945 38.7632 32.7878 39.3167 33.0445 39.8L34.6 42.6445C34.363 43.1186 34.1556 43.6 33.9778 44.0889L30.8445 45.1112C30.3225 45.2653 29.8647 45.5848 29.54 46.0217C29.2154 46.4586 29.0415 46.9891 29.0445 47.5334V51.6889C29.0697 52.2159 29.2589 52.7219 29.5856 53.1362C29.9122 53.5506 30.3601 53.8525 30.8667 54L34.1334 54.9778C34.3111 55.4519 34.5185 55.926 34.7556 56.4L33.1556 59.4C32.8961 59.8811 32.7992 60.4332 32.8793 60.9739C32.9594 61.5146 33.2122 62.0149 33.6 62.4L36.5778 65.3334C36.9613 65.7162 37.4575 65.966 37.9935 66.046C38.5295 66.1259 39.077 66.032 39.5556 65.7778L42.6 64.1778C43.0593 64.3852 43.526 64.5778 44 64.7556L44.9778 68.0223C45.139 68.5383 45.4611 68.9891 45.8969 69.309C46.3327 69.6289 46.8594 69.8009 47.4 69.8H51.6222C52.1552 69.7916 52.6719 69.6152 53.0989 69.296C53.5258 68.9768 53.8411 68.5311 54 68.0223L54.9778 64.7556C55.4445 64.6 55.9111 64.4 56.3556 64.2L59.4223 65.8223C59.8984 66.0711 60.4413 66.1622 60.9726 66.0823C61.5038 66.0024 61.9959 65.7557 62.3778 65.3778L65.3556 62.4445C65.747 62.0619 66.004 61.5629 66.0881 61.0221C66.1722 60.4813 66.079 59.9278 65.8223 59.4445L64.2 56.4667C64.4074 56.0223 64.5926 55.5778 64.7556 55.1334L68.0889 54.1556C68.6119 54.0117 69.0743 53.7022 69.4068 53.2736C69.7393 52.845 69.924 52.3202 69.9334 51.7778V47.6445ZM66.3778 50.9778L61.9334 52.2667L61.6667 53.2C61.4203 54.0407 61.0851 54.8527 60.6667 55.6223L60.2 56.4667L62.4223 60.4445L60.5111 62.3112L56.4667 60.0889L55.6445 60.5334C54.8529 60.9603 54.0187 61.3029 53.1556 61.5556L52.2223 61.8223L50.9111 66.2667H48.1778L46.8667 61.9334L45.9334 61.6667C45.0639 61.4214 44.2223 61.0862 43.4222 60.6667L42.6 60.2223L38.5778 62.4445L36.6667 60.5556L38.8889 56.5112L38.4 55.6667C37.9458 54.8723 37.5807 54.0301 37.3111 53.1556L37.0223 52.2445L32.6889 50.9556V48.2667L37 46.9778L37.2667 46.0667C37.5335 45.1841 37.8987 44.3343 38.3556 43.5334L38.8445 42.6667L36.6223 38.8223L38.5556 36.9556L42.4889 39.0445L43.3334 38.5778C44.1576 38.1209 45.0295 37.7557 45.9334 37.4889L46.8445 37.2223L48.1556 32.9778H50.8889L52.1778 37.2L53.0889 37.4667C53.9843 37.7278 54.8486 38.0854 55.6667 38.5334L56.5111 39L60.5111 36.8889L62.4223 38.7778L60.2 42.7112L60.6667 43.5556C61.1067 44.3514 61.457 45.1936 61.7111 46.0667L61.9778 47L66.2667 48.2667L66.3778 50.9778Z" fill="#5967D1"/>
</svg>
