<svg width="80" height="60" viewBox="0 0 80 60" fill="none" xmlns="http://www.w3.org/2000/svg">
<path d="M55 17.5C55 16.837 55.2634 16.2011 55.7322 15.7322C56.2011 15.2634 56.837 15 57.5 15H67.5C68.163 15 68.7989 15.2634 69.2678 15.7322C69.7366 16.2011 70 16.837 70 17.5V22.5C70 23.163 69.7366 23.7989 69.2678 24.2678C68.7989 24.7366 68.163 25 67.5 25H57.5C56.837 25 56.2011 24.7366 55.7322 24.2678C55.2634 23.7989 55 23.163 55 22.5V17.5Z" fill="#5967D1"/>
<path d="M10 0C7.34784 0 4.8043 1.05357 2.92893 2.92893C1.05357 4.8043 0 7.34784 0 10L0 50C0 52.6522 1.05357 55.1957 2.92893 57.0711C4.8043 58.9464 7.34784 60 10 60H70C72.6522 60 75.1957 58.9464 77.0711 57.0711C78.9464 55.1957 80 52.6522 80 50V10C80 7.34784 78.9464 4.8043 77.0711 2.92893C75.1957 1.05357 72.6522 0 70 0H10ZM75 10V35H5V10C5 8.67392 5.52678 7.40215 6.46447 6.46447C7.40215 5.52678 8.67392 5 10 5H70C71.3261 5 72.5979 5.52678 73.5355 6.46447C74.4732 7.40215 75 8.67392 75 10ZM70 55H10C8.67392 55 7.40215 54.4732 6.46447 53.5355C5.52678 52.5979 5 51.3261 5 50V45H75V50C75 51.3261 74.4732 52.5979 73.5355 53.5355C72.5979 54.4732 71.3261 55 70 55Z" fill="#5967D1"/>
</svg>
