<svg width="16" height="16" viewBox="0 0 16 16" fill="none" xmlns="http://www.w3.org/2000/svg">
<path d="M8.00008 5.65697C6.70985 5.65697 5.65692 6.7099 5.65692 8.00013C5.65692 9.29037 6.70985 10.3433 8.00008 10.3433C9.29032 10.3433 10.3432 9.29037 10.3432 8.00013C10.3432 6.7099 9.29032 5.65697 8.00008 5.65697ZM15.0278 8.00013C15.0278 7.02982 15.0366 6.0683 14.9821 5.09974C14.9276 3.97474 14.671 2.9763 13.8483 2.15365C13.0239 1.32923 12.0272 1.07435 10.9022 1.01986C9.93192 0.965367 8.9704 0.974156 8.00184 0.974156C7.03153 0.974156 6.07001 0.965367 5.10145 1.01986C3.97645 1.07435 2.97801 1.33099 2.15536 2.15365C1.33094 2.97806 1.07606 3.97474 1.02157 5.09974C0.967076 6.07005 0.975865 7.03158 0.975865 8.00013C0.975865 8.96869 0.967076 9.93197 1.02157 10.9005C1.07606 12.0255 1.3327 13.024 2.15536 13.8466C2.97977 14.671 3.97645 14.9259 5.10145 14.9804C6.07176 15.0349 7.03329 15.0261 8.00184 15.0261C8.97215 15.0261 9.93368 15.0349 10.9022 14.9804C12.0272 14.9259 13.0257 14.6693 13.8483 13.8466C14.6727 13.0222 14.9276 12.0255 14.9821 10.9005C15.0384 9.93197 15.0278 8.97044 15.0278 8.00013V8.00013ZM8.00008 11.6054C6.00497 11.6054 4.39481 9.99525 4.39481 8.00013C4.39481 6.00501 6.00497 4.39486 8.00008 4.39486C9.9952 4.39486 11.6054 6.00501 11.6054 8.00013C11.6054 9.99525 9.9952 11.6054 8.00008 11.6054ZM11.753 5.08919C11.2872 5.08919 10.911 4.71302 10.911 4.2472C10.911 3.78138 11.2872 3.40521 11.753 3.40521C12.2188 3.40521 12.595 3.78138 12.595 4.2472C12.5951 4.35781 12.5735 4.46737 12.5312 4.56958C12.4889 4.6718 12.4269 4.76468 12.3487 4.84289C12.2705 4.9211 12.1776 4.98312 12.0754 5.02538C11.9732 5.06765 11.8636 5.08933 11.753 5.08919V5.08919Z" fill="white"/>
</svg>
