<svg width="16" height="10" viewBox="0 0 16 10" fill="none" xmlns="http://www.w3.org/2000/svg">
<path d="M1.25925 1.229L7.25925 4.4522C7.46085 4.5602 7.72165 4.6114 7.98405 4.6114C8.24645 4.6114 8.50725 4.5602 8.70885 4.4522L14.7089 1.229C15.1001 1.0186 15.4697 0.200195 14.7521 0.200195H1.21685C0.49925 0.200195 0.86885 1.0186 1.25925 1.229V1.229ZM14.8905 2.9914L8.70885 6.213C8.43685 6.3554 8.24645 6.3722 7.98405 6.3722C7.72165 6.3722 7.53125 6.3554 7.25925 6.213C6.98725 6.0706 1.55285 3.2218 1.10885 2.9906C0.79685 2.8274 0.80005 3.0186 0.80005 3.1658V9.0002C0.80005 9.3362 1.25285 9.8002 1.60005 9.8002H14.4001C14.7473 9.8002 15.2001 9.3362 15.2001 9.0002V3.1666C15.2001 3.0194 15.2033 2.8282 14.8905 2.9914V2.9914Z" fill="white"/>
</svg>
