<svg width="16" height="16" viewBox="0 0 16 16" fill="none" xmlns="http://www.w3.org/2000/svg">
<path d="M15.2598 9.30078C15.3399 8.86133 15.3828 8.41211 15.3828 7.96289C15.3828 6.9668 15.1875 6 14.8027 5.0918C14.4317 4.21289 13.8985 3.42383 13.2207 2.74609C12.5486 2.07231 11.752 1.53565 10.875 1.16602C9.96486 0.78125 9.00001 0.585937 8.00392 0.585937C7.53517 0.585937 7.06447 0.630859 6.60744 0.71875C5.97504 0.383639 5.2704 0.207981 4.5547 0.207031C3.38868 0.207031 2.29103 0.662109 1.46681 1.48633C1.0601 1.89095 0.737624 2.37219 0.51804 2.90221C0.298456 3.43223 0.186115 4.00052 0.187513 4.57422C0.187513 5.31641 0.378919 6.04688 0.736341 6.69141C0.664076 7.10937 0.625013 7.53711 0.625013 7.96289C0.625013 8.95898 0.820325 9.92578 1.20509 10.834C1.57618 11.7129 2.10743 12.502 2.78517 13.1797C3.4629 13.8574 4.25197 14.3887 5.13087 14.7598C6.04103 15.1445 7.00587 15.3398 8.00197 15.3398C8.43556 15.3398 8.86915 15.3008 9.29493 15.2246C9.94923 15.5938 10.6875 15.791 11.4434 15.791C12.6094 15.791 13.707 15.3379 14.5313 14.5117C15.3574 13.6875 15.8106 12.5898 15.8106 11.4238C15.8125 10.6816 15.6211 9.94922 15.2598 9.30078ZM8.03322 12.4824C5.41212 12.4824 4.24025 11.1934 4.24025 10.2285C4.24025 9.73242 4.60548 9.38672 5.10939 9.38672C6.23048 9.38672 5.94142 10.998 8.03322 10.998C9.10548 10.998 9.69728 10.416 9.69728 9.82031C9.69728 9.46289 9.5215 9.06445 8.81447 8.89062L6.48243 8.30859C4.60548 7.83789 4.26368 6.82227 4.26368 5.86914C4.26368 3.88867 6.12892 3.14453 7.88087 3.14453C9.49415 3.14453 11.3965 4.03711 11.3965 5.22461C11.3965 5.73437 10.9551 6.0293 10.4512 6.0293C9.49415 6.0293 9.66993 4.70508 7.7422 4.70508C6.78517 4.70508 6.25587 5.13867 6.25587 5.75781C6.25587 6.37695 7.01173 6.57422 7.66798 6.72461L9.39454 7.10742C11.2852 7.5293 11.7637 8.63281 11.7637 9.67187C11.7637 11.2793 10.5274 12.4824 8.03322 12.4824V12.4824Z" fill="white"/>
</svg>
