<svg width="18" height="18" viewBox="0 0 18 18" fill="none" xmlns="http://www.w3.org/2000/svg">
<path d="M8.54883 0.0026192C7.10433 0.0200567 3.99877 0.257432 2.26177 1.85099C0.969706 3.13124 0.518581 5.02406 0.465706 7.36462C0.421831 9.69674 0.368956 14.0764 4.59052 15.2689V17.0852C4.59052 17.0852 4.56408 17.8119 5.04446 17.961C5.63621 18.1483 5.97314 17.5892 6.53564 16.9884L7.58471 15.8021C10.4731 16.0423 12.6855 15.4888 12.9403 15.4067C13.5264 15.2194 16.8277 14.7975 17.3671 10.4173C17.9206 5.89368 17.0977 3.04349 15.6121 1.75424H15.6031C15.1548 1.34137 13.3531 0.0284942 9.32789 0.0138692C9.32789 0.0138692 9.02921 -0.0063808 8.54883 0.0020567V0.0026192ZM8.59833 1.27443C9.00839 1.27162 9.25758 1.28906 9.25758 1.28906C12.6646 1.29806 14.2908 2.32349 14.6745 2.66887C15.9255 3.74099 16.5701 6.31049 16.0981 10.0871C15.6498 13.749 12.9723 13.9807 12.4768 14.1388C12.2658 14.2063 10.3173 14.6867 7.86258 14.5286C7.86258 14.5286 6.03446 16.7347 5.46296 17.3029C5.37239 17.4024 5.26664 17.4317 5.19914 17.4171C5.10239 17.3934 5.07314 17.2736 5.07877 17.1094L5.09621 14.0949C1.51589 13.1049 1.72683 9.36937 1.76508 7.41806C1.80896 5.46674 2.17514 3.87037 3.26527 2.78924C4.73283 1.46231 7.36983 1.28343 8.59721 1.27443H8.59833ZM8.86833 3.22518C8.83886 3.22488 8.80963 3.23042 8.78231 3.24148C8.755 3.25253 8.73014 3.26888 8.70917 3.28959C8.6882 3.3103 8.67154 3.33495 8.66014 3.36212C8.64875 3.3893 8.64284 3.41846 8.64277 3.44793C8.64277 3.57393 8.74514 3.67349 8.86833 3.67349C9.42605 3.66289 9.98035 3.7628 10.4993 3.96747C11.0182 4.17214 11.4915 4.47752 11.8918 4.86599C12.7091 5.65968 13.1073 6.72618 13.1225 8.12062C13.1225 8.24381 13.2221 8.34618 13.3481 8.34618V8.33718C13.4075 8.33733 13.4645 8.314 13.5068 8.27228C13.549 8.23055 13.5731 8.17381 13.5736 8.11443C13.601 7.45808 13.4945 6.80303 13.2608 6.18909C13.0271 5.57515 12.671 5.01515 12.2141 4.54312C11.3236 3.67293 10.1953 3.22462 8.86833 3.22462V3.22518ZM5.90339 3.74099C5.74418 3.71773 5.58179 3.74969 5.44327 3.83156H5.43146C5.10985 4.02007 4.82014 4.25834 4.57308 4.53749C4.36777 4.77487 4.25639 5.01506 4.22714 5.24624C4.20971 5.38406 4.22152 5.52187 4.26258 5.65349L4.27721 5.66249C4.50839 6.34199 4.81046 6.99562 5.17946 7.61099C5.65478 8.47553 6.23974 9.27508 6.91983 9.98981L6.94008 10.0191L6.97214 10.0427L6.99239 10.0663L7.01602 10.0866C7.73334 10.7686 8.53482 11.3563 9.40102 11.8354C10.391 12.3742 10.9918 12.6291 11.3523 12.7348V12.7404C11.4581 12.7725 11.5543 12.7871 11.651 12.7871C11.9583 12.7646 12.2492 12.6398 12.4773 12.4327C12.7552 12.1856 12.9908 11.8947 13.1748 11.5716V11.5659C13.3475 11.2408 13.289 10.9331 13.0398 10.725C12.5408 10.2888 12.0011 9.90132 11.4283 9.56793C11.0446 9.35981 10.6548 9.48581 10.4968 9.69674L10.1598 10.1214C9.98714 10.3324 9.67327 10.3031 9.67327 10.3031L9.66427 10.3087C7.32371 9.71081 6.69933 7.34099 6.69933 7.34099C6.69933 7.34099 6.67008 7.01868 6.88664 6.85443L7.30852 6.51468C7.51046 6.35043 7.65108 5.96118 7.43452 5.57699C7.10343 5.00333 6.71683 4.46355 6.28027 3.96543C6.18483 3.848 6.05094 3.7681 5.90227 3.73987L5.90339 3.74099ZM9.25758 4.40924C8.95889 4.40924 8.95889 4.86037 9.26039 4.86037C9.6318 4.86639 9.99838 4.94555 10.3392 5.09332C10.68 5.24109 10.9883 5.45457 11.2466 5.72156C11.4822 5.98144 11.6632 6.28596 11.779 6.61708C11.8947 6.9482 11.9428 7.29919 11.9205 7.64924C11.9215 7.70849 11.9457 7.76497 11.9878 7.8066C12.03 7.84824 12.0868 7.87171 12.146 7.87199L12.155 7.88381C12.2147 7.88337 12.2718 7.85946 12.314 7.81725C12.3562 7.77505 12.3801 7.71793 12.3806 7.65824C12.4008 6.76443 12.123 6.01462 11.5779 5.41387C11.03 4.81312 10.2656 4.47618 9.28964 4.40924H9.25758V4.40924ZM9.62714 5.62199C9.31946 5.61299 9.30764 6.07312 9.61252 6.08212C10.3539 6.12037 10.7139 6.49499 10.7611 7.26562C10.7622 7.32412 10.7861 7.37988 10.8277 7.42099C10.8693 7.4621 10.9254 7.48527 10.9839 7.48556H10.9929C11.023 7.48427 11.0525 7.477 11.0797 7.46418C11.107 7.45135 11.1314 7.43324 11.1515 7.41088C11.1717 7.38852 11.1872 7.36237 11.1971 7.33395C11.2071 7.30553 11.2113 7.27542 11.2095 7.24537C11.1566 6.24074 10.6087 5.67487 9.63614 5.62256H9.62714V5.62199Z" fill="white"/>
</svg>
