<svg width="16" height="16" viewBox="0 0 16 16" fill="none" xmlns="http://www.w3.org/2000/svg">
<path d="M14.12 4.13018C11.96 0.800183 7.55005 -0.189817 4.13005 1.88018C0.800046 3.95018 -0.279954 8.45018 1.88005 11.7802L2.06005 12.0502L1.34005 14.7502L4.04005 14.0302L4.31005 14.2102C5.48005 14.8402 6.74005 15.2002 8.00005 15.2002C9.35005 15.2002 10.7 14.8402 11.87 14.1202C15.2 11.9602 16.19 7.55018 14.12 4.13018V4.13018ZM12.23 11.0602C11.87 11.6002 11.42 11.9602 10.79 12.0502C10.43 12.0502 9.98005 12.2302 8.18005 11.5102C6.65005 10.7902 5.39005 9.62018 4.49005 8.27018C3.95005 7.64018 3.68005 6.83018 3.59005 6.02018C3.59005 5.30018 3.86005 4.67018 4.31005 4.22018C4.49005 4.04018 4.67005 3.95018 4.85005 3.95018H5.30005C5.48005 3.95018 5.66005 3.95018 5.75005 4.31018C5.93005 4.76018 6.38005 5.84018 6.38005 5.93018C6.47005 6.02018 6.47005 6.20018 6.38005 6.29018C6.47005 6.47018 6.38005 6.65018 6.29005 6.74018C6.20005 6.83018 6.11005 7.01018 6.02005 7.10018C5.84005 7.19018 5.75005 7.37018 5.84005 7.55018C6.20005 8.09018 6.65005 8.63018 7.10005 9.08018C7.64005 9.53018 8.18005 9.89018 8.81005 10.1602C8.99005 10.2502 9.17005 10.2502 9.26005 10.0702C9.35005 9.89018 9.80005 9.44018 9.98005 9.26018C10.16 9.08018 10.25 9.08018 10.43 9.17018L11.87 9.89018C12.05 9.98018 12.23 10.0702 12.32 10.1602C12.41 10.4302 12.41 10.7902 12.23 11.0602V11.0602Z" fill="white"/>
</svg>
