<svg width="65" height="65" viewBox="0 0 65 65" fill="none" xmlns="http://www.w3.org/2000/svg">
<path d="M32.48 30C34.4691 30 36.3768 30.7902 37.7833 32.1967C39.1898 33.6032 39.98 35.5109 39.98 37.5L39.975 41.24C40.49 50.425 33.415 55.005 20.3 55.005C7.23 55 0 50.485 0 41.375V37.5C0 35.5109 0.790177 33.6032 2.1967 32.1967C3.60322 30.7902 5.51088 30 7.5 30H32.48ZM32.48 35H7.5C6.83696 35 6.20107 35.2634 5.73223 35.7322C5.26339 36.2011 5 36.837 5 37.5V41.375C5 47.1 9.64 50 20.3 50C30.92 50 35.3 47.165 34.98 41.375V37.5C34.98 36.837 34.7166 36.2011 34.2478 35.7322C33.7789 35.2634 33.143 35 32.48 35ZM48.565 52.075L45.995 51.22L45.585 51.105C44.8281 50.9441 44.0401 51.0172 43.3257 51.3146C42.6113 51.6119 42.0042 52.1195 41.585 52.77L39.25 56.2L39.02 56.575C38.5796 57.3974 38.412 58.3386 38.5414 59.2625C38.6708 60.1864 39.0906 61.0452 39.74 61.715L41.29 63.27L41.69 63.635C43.19 64.905 45.2 65.325 47.065 64.745C51.87 63.245 56.29 58.795 60.32 51.395C64.355 43.98 65.78 37.695 64.595 32.525C64.095 30.35 62.545 28.62 60.525 27.975L58.49 27.325L58.105 27.225C57.209 27.0521 56.2808 27.1972 55.4803 27.6354C54.6798 28.0735 54.0573 28.7771 53.72 29.625L52.095 33.465L51.94 33.89C51.7005 34.6615 51.6794 35.4842 51.8788 36.267C52.0783 37.0498 52.4906 37.7621 53.07 38.325L56.655 41.73L56.53 42.6C56.23 44.34 55.58 46.05 54.6 47.745C53.45 49.715 52.02 51.355 50.3 52.655L48.565 52.075ZM49.065 46.975L49.1 46.925L49 46.95L49.065 46.97V46.975ZM47.165 32.42C46.9 33.26 46.765 34.13 46.75 35H42.165C41.6632 33.0633 40.5921 31.3215 39.09 30H48.135L47.44 31.63L47.2 32.295L47.16 32.42H47.165ZM20 0C23.3152 0 26.4946 1.31696 28.8388 3.66116C31.183 6.00537 32.5 9.18479 32.5 12.5C32.5 15.8152 31.183 18.9946 28.8388 21.3388C26.4946 23.683 23.3152 25 20 25C16.6848 25 13.5054 23.683 11.1612 21.3388C8.81696 18.9946 7.5 15.8152 7.5 12.5C7.5 9.18479 8.81696 6.00537 11.1612 3.66116C13.5054 1.31696 16.6848 0 20 0ZM20 5C18.0109 5 16.1032 5.79018 14.6967 7.1967C13.2902 8.60322 12.5 10.5109 12.5 12.5C12.5 14.4891 13.2902 16.3968 14.6967 17.8033C16.1032 19.2098 18.0109 20 20 20C21.9891 20 23.8968 19.2098 25.3033 17.8033C26.7098 16.3968 27.5 14.4891 27.5 12.5C27.5 10.5109 26.7098 8.60322 25.3033 7.1967C23.8968 5.79018 21.9891 5 20 5ZM45 5C47.6522 5 50.1957 6.05357 52.0711 7.92893C53.9464 9.80429 55 12.3478 55 15C55 17.6522 53.9464 20.1957 52.0711 22.0711C50.1957 23.9464 47.6522 25 45 25C42.3478 25 39.8043 23.9464 37.9289 22.0711C36.0536 20.1957 35 17.6522 35 15C35 12.3478 36.0536 9.80429 37.9289 7.92893C39.8043 6.05357 42.3478 5 45 5ZM45 10C43.6739 10 42.4021 10.5268 41.4645 11.4645C40.5268 12.4021 40 13.6739 40 15C40 16.3261 40.5268 17.5978 41.4645 18.5355C42.4021 19.4732 43.6739 20 45 20C46.3261 20 47.5979 19.4732 48.5355 18.5355C49.4732 17.5978 50 16.3261 50 15C50 13.6739 49.4732 12.4021 48.5355 11.4645C47.5979 10.5268 46.3261 10 45 10Z" fill="#5967D1"/>
</svg>
