<svg width="52" height="70" viewBox="0 0 52 70" fill="none" xmlns="http://www.w3.org/2000/svg">
<path d="M42.5724 22.7279C42.7726 22.9276 42.9315 23.1649 43.0399 23.4261C43.1482 23.6873 43.204 23.9673 43.204 24.2501C43.204 24.5329 43.1482 24.8129 43.0399 25.0741C42.9315 25.3353 42.7726 25.5726 42.5724 25.7723L35.0474 33.2973C34.6557 33.6885 34.1282 33.9136 33.5747 33.9256C33.0212 33.9376 32.4844 33.7357 32.0761 33.3618L28.8511 30.4163C28.4517 30.0267 28.2194 29.497 28.2033 28.9393C28.1872 28.3815 28.3885 27.8394 28.7648 27.4274C29.1411 27.0154 29.6628 26.7658 30.2197 26.7313C30.7767 26.6969 31.3251 26.8804 31.7493 27.2429L33.4564 28.7995L39.528 22.7279C39.7277 22.5277 39.965 22.3688 40.2262 22.2604C40.4874 22.152 40.7674 22.0963 41.0502 22.0963C41.333 22.0963 41.613 22.152 41.8742 22.2604C42.1354 22.3688 42.3727 22.5277 42.5724 22.7279ZM42.5724 47.2723C42.9761 46.8692 43.2031 46.3222 43.2035 45.7516C43.2039 45.1811 42.9777 44.6338 42.5745 44.23C42.1714 43.8263 41.6244 43.5993 41.0539 43.5989C40.4833 43.5985 39.936 43.8248 39.5323 44.2279L33.4564 50.2995L31.7493 48.7429C31.3251 48.3804 30.7767 48.1969 30.2197 48.2313C29.6628 48.2658 29.1411 48.5154 28.7648 48.9274C28.3885 49.3394 28.1872 49.8815 28.2033 50.4393C28.2194 50.997 28.4517 51.5267 28.8511 51.9163L32.0761 54.8618C32.4842 55.2344 33.0201 55.4356 33.5725 55.4236C34.125 55.4115 34.6516 55.1873 35.0431 54.7973L42.5681 47.2723H42.5724ZM10.9502 26.4001C10.38 26.4001 9.83312 26.6266 9.42992 27.0298C9.02671 27.433 8.8002 27.9799 8.8002 28.5501C8.8002 29.1203 9.02671 29.6672 9.42992 30.0704C9.83312 30.4736 10.38 30.7001 10.9502 30.7001H21.7002C22.2704 30.7001 22.8173 30.4736 23.2205 30.0704C23.6237 29.6672 23.8502 29.1203 23.8502 28.5501C23.8502 27.9799 23.6237 27.433 23.2205 27.0298C22.8173 26.6266 22.2704 26.4001 21.7002 26.4001H10.9502ZM8.8002 50.0501C8.8002 49.4799 9.02671 48.933 9.42992 48.5298C9.83312 48.1266 10.38 47.9001 10.9502 47.9001H21.7002C22.2704 47.9001 22.8173 48.1266 23.2205 48.5298C23.6237 48.933 23.8502 49.4799 23.8502 50.0501C23.8502 50.6203 23.6237 51.1672 23.2205 51.5704C22.8173 51.9736 22.2704 52.2001 21.7002 52.2001H10.9502C10.38 52.2001 9.83312 51.9736 9.42992 51.5704C9.02671 51.1672 8.8002 50.6203 8.8002 50.0501ZM13.4657 4.9001C13.9105 3.64201 14.7345 2.55285 15.8243 1.78272C16.914 1.01259 18.2158 0.599399 19.5502 0.600099H32.4502C33.7846 0.599399 35.0864 1.01259 36.1761 1.78272C37.2658 2.55285 38.0899 3.64201 38.5347 4.9001H45.3502C47.0608 4.9001 48.7014 5.57965 49.911 6.78926C51.1206 7.99887 51.8002 9.63945 51.8002 11.3501V62.9501C51.8002 64.6607 51.1206 66.3013 49.911 67.5109C48.7014 68.7205 47.0608 69.4001 45.3502 69.4001H6.6502C4.93955 69.4001 3.29897 68.7205 2.08936 67.5109C0.879746 66.3013 0.200195 64.6607 0.200195 62.9501V11.3501C0.200195 9.63945 0.879746 7.99887 2.08936 6.78926C3.29897 5.57965 4.93955 4.9001 6.6502 4.9001H13.4657ZM19.5502 4.9001C18.98 4.9001 18.4331 5.12662 18.0299 5.52982C17.6267 5.93302 17.4002 6.47988 17.4002 7.0501C17.4002 7.62031 17.6267 8.16717 18.0299 8.57038C18.4331 8.97358 18.98 9.2001 19.5502 9.2001H32.4502C33.0204 9.2001 33.5673 8.97358 33.9705 8.57038C34.3737 8.16717 34.6002 7.62031 34.6002 7.0501C34.6002 6.47988 34.3737 5.93302 33.9705 5.52982C33.5673 5.12662 33.0204 4.9001 32.4502 4.9001H19.5502ZM13.4657 9.2001H6.6502C6.07998 9.2001 5.53312 9.42662 5.12992 9.82982C4.72671 10.233 4.5002 10.7799 4.5002 11.3501V62.9501C4.5002 63.5203 4.72671 64.0672 5.12992 64.4704C5.53312 64.8736 6.07998 65.1001 6.6502 65.1001H45.3502C45.9204 65.1001 46.4673 64.8736 46.8705 64.4704C47.2737 64.0672 47.5002 63.5203 47.5002 62.9501V11.3501C47.5002 10.7799 47.2737 10.233 46.8705 9.82982C46.4673 9.42662 45.9204 9.2001 45.3502 9.2001H38.5347C38.0899 10.4582 37.2658 11.5473 36.1761 12.3175C35.0864 13.0876 33.7846 13.5008 32.4502 13.5001H19.5502C18.2158 13.5008 16.914 13.0876 15.8243 12.3175C14.7345 11.5473 13.9105 10.4582 13.4657 9.2001Z" fill="#5967D1"/>
</svg>
