<svg width="68" height="70" viewBox="0 0 68 70" fill="none" xmlns="http://www.w3.org/2000/svg">
<path d="M67.1778 46.0668C67.2007 45.5404 67.0618 45.0197 66.7797 44.5747C66.4976 44.1297 66.0859 43.7818 65.6 43.5779L61.8667 42.4668C61.6667 41.9335 61.4667 41.4001 61.2223 40.889L62.9556 37.689C63.2159 37.1989 63.311 36.6379 63.227 36.0894C63.1429 35.5409 62.884 35.0342 62.4889 34.6446L59.3334 31.5112C58.9411 31.1197 58.4331 30.8651 57.8847 30.785C57.3363 30.705 56.7768 30.8038 56.2889 31.0668L53.0667 32.7557C52.5166 32.4892 51.9529 32.2518 51.3778 32.0446L50.3112 28.5335C50.1331 28.0245 49.7986 27.5849 49.3556 27.2775C48.9125 26.9702 48.3836 26.8109 47.8445 26.8224H43.4C42.848 26.8219 42.3103 26.9987 41.8663 27.3268C41.4222 27.6548 41.0952 28.1167 40.9334 28.6446L39.8889 32.0668C39.3062 32.273 38.735 32.5104 38.1778 32.7779L35.0223 31.089C34.5369 30.8313 33.9819 30.7354 33.4382 30.8154C32.8946 30.8953 32.3906 31.1469 32.0001 31.5335L28.7778 34.6446C28.3777 35.0358 28.1158 35.5466 28.0316 36.0999C27.9474 36.6531 28.0455 37.2187 28.3112 37.7112L29.9556 40.6668C29.6973 41.2025 29.4674 41.7514 29.2667 42.3112L25.7556 43.3557C25.2218 43.5103 24.7529 43.8348 24.42 44.2799C24.0872 44.7251 23.9085 45.2666 23.9112 45.8224V50.2668C23.9134 50.8188 24.0942 51.3552 24.4267 51.7959C24.7592 52.2365 25.2254 52.5577 25.7556 52.7112L29.2889 53.7557C29.4906 54.3006 29.7206 54.8347 29.9778 55.3557L28.2445 58.6001C27.9842 59.0902 27.8891 59.6512 27.9732 60.1997C28.0572 60.7482 28.3161 61.2549 28.7112 61.6446L31.8667 64.7557C32.2564 65.1508 32.7631 65.4096 33.3116 65.4937C33.8601 65.5778 34.4211 65.4826 34.9112 65.2224L38.2001 63.489C38.7112 63.7335 39.2445 63.9335 39.8001 64.1335L40.8889 67.7335C41.0547 68.2572 41.3834 68.7142 41.8271 69.038C42.2708 69.3618 42.8063 69.5354 43.3556 69.5335H47.8001C48.3521 69.5339 48.8898 69.3571 49.3338 69.0291C49.7779 68.701 50.1049 68.2391 50.2667 67.7112L51.3112 64.2001C51.8445 64.0224 52.3556 63.8001 52.8667 63.5557L56.2001 65.3112C56.6854 65.569 57.2404 65.6649 57.7841 65.5849C58.3278 65.505 58.8317 65.2533 59.2223 64.8668L62.3778 61.7557C62.7779 61.3645 63.0399 60.8536 63.1241 60.3004C63.2082 59.7472 63.1101 59.1816 62.8445 58.689L61.0889 55.4668C61.326 54.9631 61.5408 54.452 61.7334 53.9335L65.3334 52.889C65.8672 52.7344 66.3361 52.4099 66.669 51.9648C67.0018 51.5197 67.1805 50.9782 67.1778 50.4224V46.0668ZM63.6223 49.689L58.9334 51.0668L58.6667 52.0001C58.3925 52.919 58.02 53.8056 57.5556 54.6446L57.0889 55.489L59.3112 59.7335L57.0889 61.9557L52.6445 59.7335L51.8223 60.1779C50.9738 60.6329 50.08 60.9979 49.1556 61.2668L48.2223 61.5335L46.8223 66.1779H44.0445L42.6445 61.5557L41.7112 61.289C40.7792 61.0212 39.878 60.6563 39.0223 60.2001L38.2001 59.7557L33.8889 61.9779L31.6667 59.7557L33.8889 55.4446L33.4 54.6001C32.9542 53.7009 32.6113 52.7541 32.3778 51.7779L32.0001 50.9557L27.5556 49.5557V46.6446L32.0001 45.289L32.2889 44.3779C32.5772 43.4253 32.9723 42.5084 33.4667 41.6446L34.0001 40.6668L31.7778 36.5557L34.0001 34.4668L38.2001 36.689L39.0445 36.2224C39.9328 35.7359 40.8717 35.3484 41.8445 35.0668L42.7556 34.8001L44.1556 30.3557H47.2223L48.6 34.8001L49.5112 35.0668C50.4535 35.3541 51.3624 35.7415 52.2223 36.2224L53.0667 36.689L57.3334 34.4668L59.5556 36.689L57.3334 40.889L57.8001 41.7335C58.2661 42.5872 58.6387 43.4887 58.9112 44.4224L59.1778 45.3557L63.7556 46.7112L63.6223 49.689Z" fill="#5967D1"/>
<path d="M45.5998 39.2223C43.8497 39.2573 42.149 39.8082 40.7108 40.806C39.2726 41.8037 38.161 43.2039 37.5154 44.8309C36.8698 46.4579 36.7189 48.2393 37.0817 49.9517C37.4445 51.6641 38.3048 53.2313 39.5547 54.4567C40.8046 55.6821 42.3885 56.5112 44.1078 56.84C45.827 57.1689 47.6051 56.9827 49.219 56.3051C50.8329 55.6274 52.2108 54.4883 53.1799 53.0306C54.149 51.5729 54.6661 49.8616 54.6665 48.1112C54.6313 45.7338 53.6592 43.4664 51.9614 41.8019C50.2636 40.1374 47.9774 39.2103 45.5998 39.2223ZM45.5998 53.5778C44.5368 53.556 43.5039 53.2208 42.6306 52.6143C41.7573 52.0078 41.0825 51.1569 40.6908 50.1685C40.299 49.1801 40.2078 48.098 40.4286 47.0579C40.6493 46.0178 41.1722 45.066 41.9316 44.3219C42.691 43.5778 43.6533 43.0744 44.6976 42.8749C45.742 42.6754 46.822 42.7886 47.8022 43.2004C48.7825 43.6122 49.6194 44.3042 50.208 45.1896C50.7966 46.0751 51.1107 47.1146 51.1109 48.1778C51.1051 48.8957 50.9579 49.6055 50.6778 50.2665C50.3977 50.9275 49.9901 51.5269 49.4784 52.0304C48.9666 52.5339 48.3607 52.9317 47.6952 53.201C47.0297 53.4703 46.3177 53.6059 45.5998 53.6001V53.5778Z" fill="#5967D1"/>
<path d="M24.1998 62.8887H5.33312V5.11095H49.7776V22.6443C50.7475 22.9289 51.6456 23.417 52.412 24.0761C53.1783 24.7352 53.7954 25.5501 54.222 26.4665V5.11095C54.222 3.93221 53.7538 2.80175 52.9203 1.96825C52.0868 1.13476 50.9563 0.666504 49.7776 0.666504H5.33312C4.15438 0.666504 3.02391 1.13476 2.19042 1.96825C1.35692 2.80175 0.888672 3.93221 0.888672 5.11095V62.8887C0.888672 64.0675 1.35692 65.1979 2.19042 66.0314C3.02391 66.8649 4.15438 67.3332 5.33312 67.3332H28.0665L25.622 64.9332C25.028 64.3434 24.5461 63.6507 24.1998 62.8887Z" fill="#5967D1"/>
</svg>
