<svg width="80" height="52" viewBox="0 0 80 52" fill="none" xmlns="http://www.w3.org/2000/svg">
<path d="M6.6675 31.1105C7.59341 31.1105 8.24155 30.7401 8.61191 29.9994C8.98227 29.2586 8.98227 28.5179 8.61191 27.7772C8.24155 27.0365 7.59341 26.6661 6.6675 26.6661C5.7416 26.6661 5.09346 27.0365 4.7231 27.7772C4.35274 28.5179 4.35274 29.2586 4.7231 29.9994C5.09346 30.7401 5.7416 31.1105 6.6675 31.1105ZM57.8123 29.0966C57.5808 28.7957 57.1352 28.217 56.4755 27.3605C55.8158 26.5041 55.3355 25.8791 55.0345 25.4856C54.7336 25.0921 54.2938 24.525 53.7151 23.7842C53.1364 23.0435 52.6446 22.4301 52.2395 21.944C51.8344 21.4579 51.3656 20.9139 50.8332 20.3121C50.3009 19.7102 49.78 19.1431 49.2708 18.6107L44.9306 23.4717C43.0093 25.6476 40.5962 26.7124 37.6912 26.6661C34.7861 26.6198 32.4077 25.4856 30.5559 23.2634C29.2365 21.6662 28.5826 19.8375 28.5941 17.7774C28.6057 15.7173 29.2828 13.9002 30.6253 12.3261L36.771 5.1735C36.2618 4.91888 35.6715 4.72791 35.0002 4.6006C34.329 4.47329 33.7792 4.40384 33.351 4.39227C32.9227 4.3807 32.2688 4.38648 31.3892 4.40963C30.5096 4.43278 29.9425 4.44435 29.6879 4.44435C27.5583 4.44435 25.7296 5.20822 24.2019 6.73597L18.7159 12.222H13.334V31.1105C13.4498 31.1105 13.6928 31.1047 14.0632 31.0931C14.4335 31.0815 14.6882 31.0815 14.8271 31.0931C14.9659 31.1047 15.1916 31.1278 15.5041 31.1625C15.8166 31.1973 16.0539 31.2493 16.2159 31.3188C16.3779 31.3882 16.5805 31.4866 16.8235 31.6139C17.0666 31.7412 17.2807 31.8975 17.4659 32.0827L27.7782 42.2213C30.4402 44.7907 33.0674 46.0754 35.66 46.0754C37.4655 46.0754 38.9122 45.5315 40.0001 44.4435C41.3196 44.9065 42.6216 44.8139 43.9063 44.1657C45.191 43.5176 46.0301 42.5338 46.4236 41.2144C48.1365 41.3533 49.6064 40.8441 50.8332 39.6867C51.2962 39.27 51.7129 38.7434 52.0832 38.1068C52.4536 37.4703 52.6156 36.8858 52.5693 36.3534C52.8008 36.5849 53.2985 36.7006 54.0623 36.7006C55.0577 36.7006 55.9489 36.4576 56.7359 35.9715C57.5229 35.4854 58.0958 34.872 58.4546 34.1312C58.8134 33.3905 58.9523 32.563 58.8713 31.6486C58.7903 30.7343 58.4373 29.8836 57.8123 29.0966ZM63.333 31.1105H66.6663V13.3331H63.4372L57.9859 7.08319C56.4581 5.32396 54.5022 4.44435 52.1179 4.44435H46.3195C44.2593 4.44435 42.5695 5.2198 41.2501 6.77069L33.9933 15.208C33.3452 15.9719 33.0211 16.8399 33.0211 17.8121C33.0211 18.7843 33.3336 19.6524 33.9586 20.4162C34.9539 21.5968 36.2271 22.1986 37.778 22.2218C39.3289 22.2449 40.6136 21.6778 41.6321 20.5204L48.3333 12.9511C48.912 12.4187 49.5312 12.1699 50.1909 12.2046C50.8506 12.2393 51.3946 12.5518 51.8228 13.1421C52.251 13.7324 52.3494 14.3863 52.1179 15.1039C52.4883 15.5437 53.1364 16.2728 54.0623 17.2913C54.9883 18.3098 55.6827 19.0968 56.1456 19.6524C56.8169 20.4857 57.7718 21.7067 59.0102 23.3155C60.2486 24.9242 60.9951 25.9022 61.2497 26.2495C62.4534 27.7772 63.1478 29.3975 63.333 31.1105ZM73.3328 31.1105C74.2587 31.1105 74.9068 30.7401 75.2772 29.9994C75.6475 29.2586 75.6475 28.5179 75.2772 27.7772C74.9068 27.0365 74.2587 26.6661 73.3328 26.6661C72.4069 26.6661 71.7587 27.0365 71.3884 27.7772C71.018 28.5179 71.018 29.2586 71.3884 29.9994C71.7587 30.7401 72.4069 31.1105 73.3328 31.1105ZM79.9993 11.1109V33.3326C79.9993 33.9345 79.7794 34.4553 79.3396 34.8951C78.8998 35.3349 78.379 35.5548 77.7771 35.5548H62.708C62.083 37.0594 61.134 38.292 59.8608 39.2527C58.5877 40.2133 57.141 40.8093 55.5207 41.0408C54.7568 42.1519 53.8251 43.0952 52.7256 43.8706C51.6261 44.6461 50.4397 45.1727 49.1666 45.4504C48.1944 46.6773 46.985 47.6205 45.5382 48.2802C44.0915 48.9399 42.6043 49.2235 41.0765 49.1309C39.6876 49.9179 38.2293 50.3751 36.7016 50.5024C35.1739 50.6297 33.6982 50.4677 32.2746 50.0163C30.851 49.5649 29.4969 48.9457 28.2122 48.1587C26.9275 47.3717 25.7296 46.4342 24.6185 45.3463L14.6534 35.5548H2.22315C1.62131 35.5548 1.10049 35.3349 0.660685 34.8951C0.220879 34.4553 0.000976562 33.9345 0.000976562 33.3326V9.99979C0.000976562 9.39795 0.220879 8.87713 0.660685 8.43732C1.10049 7.99752 1.62131 7.77762 2.22315 7.77762H16.8409C17.165 7.45355 17.7089 6.898 18.4728 6.11098C19.2367 5.32396 19.7864 4.76842 20.1221 4.44435C20.4577 4.12028 20.967 3.65733 21.6498 3.05549C22.3327 2.45365 22.9172 2.01963 23.4033 1.75344C23.8894 1.48724 24.4796 1.1921 25.1741 0.868037C25.8685 0.54397 26.5861 0.31828 27.3268 0.190968C28.0675 0.0636561 28.8545 0 29.6879 0H33.7503C36.0419 0 38.1368 0.648135 40.0349 1.9444C41.933 0.648135 44.0278 0 46.3195 0H52.1179C52.9281 0 53.7036 0.069443 54.4443 0.208329C55.185 0.347215 55.8389 0.515036 56.406 0.711791C56.9732 0.908546 57.5692 1.21525 58.1942 1.63191C58.8192 2.04857 59.3342 2.40736 59.7393 2.70828C60.1444 3.0092 60.6421 3.46636 61.2323 4.07978C61.8226 4.69319 62.274 5.17929 62.5865 5.53808C62.899 5.89687 63.3735 6.45241 64.0101 7.20471C64.6466 7.95701 65.1269 8.51834 65.451 8.8887H77.7771C78.379 8.8887 78.8998 9.10861 79.3396 9.54841C79.7794 9.98822 79.9993 10.509 79.9993 11.1109Z" fill="#5967D1"/>
</svg>
