<svg width="54" height="54" viewBox="0 0 54 54" fill="none" xmlns="http://www.w3.org/2000/svg">
<path d="M42 7H13.25C9.5 7 2 9.5 2 17C2 24.5 9.5 27 13.25 27H40.75C44.5 27 52 29.5 52 37C52 44.5 44.5 47 40.75 47H12" stroke="#5967D1" stroke-width="4" stroke-linecap="round" stroke-linejoin="round"/>
<path d="M47 12C48.3261 12 49.5979 11.4732 50.5355 10.5355C51.4732 9.59785 52 8.32608 52 7C52 5.67392 51.4732 4.40215 50.5355 3.46447C49.5979 2.52678 48.3261 2 47 2C45.6739 2 44.4021 2.52678 43.4645 3.46447C42.5268 4.40215 42 5.67392 42 7C42 8.32608 42.5268 9.59785 43.4645 10.5355C44.4021 11.4732 45.6739 12 47 12V12ZM7 52C8.32608 52 9.59785 51.4732 10.5355 50.5355C11.4732 49.5979 12 48.3261 12 47C12 45.6739 11.4732 44.4021 10.5355 43.4645C9.59785 42.5268 8.32608 42 7 42C5.67392 42 4.40215 42.5268 3.46447 43.4645C2.52678 44.4021 2 45.6739 2 47C2 48.3261 2.52678 49.5979 3.46447 50.5355C4.40215 51.4732 5.67392 52 7 52V52Z" stroke="#5967D1" stroke-width="4" stroke-linejoin="round"/>
</svg>
