<svg width="50" height="54" viewBox="0 0 50 54" fill="none" xmlns="http://www.w3.org/2000/svg">
<path d="M49.25 42H41.75V34.5H38V42H30.5V45.75H38V53.25H41.75V45.75H49.25V42Z" fill="#5967D1"/>
<path d="M21.875 53.25L2.375 41.625C1.25 40.875 0.5 39.75 0.5 38.4375V15.5625C0.5 14.25 1.25 12.9375 2.375 12.375L21.125 1.3125C21.6875 0.9375 22.25 0.75 23 0.75C23.75 0.75 24.3125 0.9375 24.875 1.3125L43.625 12.375C44.75 13.125 45.5 14.25 45.5 15.5625V27H41.75V15.5625L23 4.5L4.25 15.5625V38.4375L23.9375 50.0625L21.875 53.25Z" fill="#5967D1"/>
</svg>
