<svg width="44" height="57" viewBox="0 0 44 57" fill="none" xmlns="http://www.w3.org/2000/svg">
<path d="M42.9474 26.1843L42.947 26.1835L36.6813 13.5118V4.5C36.6813 3.58998 36.3198 2.71722 35.6763 2.07374C35.0328 1.43026 34.16 1.06875 33.25 1.06875H10.75C9.83999 1.06875 8.96724 1.43026 8.32375 2.07374C7.68027 2.71722 7.31876 3.58998 7.31876 4.5V13.5118L1.05305 26.1835L1.05264 26.1843C0.777529 26.7495 0.661802 27.379 0.717929 28.005C0.774055 28.631 0.999908 29.2299 1.37116 29.737L1.37142 29.7374L20.7542 56.0577L20.755 56.0588C20.9 56.252 21.0879 56.4089 21.304 56.517L21.3711 56.3828L21.304 56.517C21.5201 56.625 21.7584 56.6813 22 56.6813C22.2416 56.6813 22.4799 56.625 22.696 56.517C22.9121 56.4089 23.1001 56.252 23.245 56.0588L23.2458 56.0577L42.6286 29.7374L42.6289 29.737C43.0001 29.2299 43.226 28.631 43.2821 28.005C43.3382 27.379 43.2225 26.7495 42.9474 26.1843ZM40.115 27.8935L40.1136 27.8954L23.5563 50.3793V33.9846C24.9974 33.6137 26.2601 32.7398 27.115 31.5186C27.9926 30.2649 28.3793 28.7326 28.2015 27.2126C28.0237 25.6926 27.2939 24.2908 26.1506 23.2735C25.0074 22.2562 23.5304 21.6942 22 21.6942C20.4697 21.6942 18.9926 22.2562 17.8494 23.2735C16.7061 24.2908 15.9763 25.6926 15.7985 27.2126C15.6208 28.7326 16.0074 30.2649 16.885 31.5186C17.7399 32.7398 19.0026 33.6137 20.4438 33.9846V50.3793L3.88642 27.8954L3.88644 27.8954L3.88501 27.8935C3.84903 27.8463 3.82699 27.7899 3.82136 27.7307C3.81572 27.6716 3.82673 27.6121 3.85313 27.5589L3.85329 27.5585L9.83546 15.4312H34.1646L40.1467 27.5585L40.1469 27.5589C40.1733 27.6121 40.1843 27.6716 40.1787 27.7307C40.173 27.7899 40.151 27.8463 40.115 27.8935ZM10.75 4.18125H33.25C33.3345 4.18125 33.4156 4.21483 33.4754 4.27461L33.5815 4.16854L33.4754 4.27461C33.5352 4.33439 33.5688 4.41546 33.5688 4.5V12.3188H10.4313V4.5C10.4313 4.41546 10.4648 4.33439 10.5246 4.27461C10.5844 4.21483 10.6655 4.18125 10.75 4.18125ZM22 31.0688C21.3807 31.0688 20.7753 30.8851 20.2604 30.541C19.7455 30.197 19.3441 29.7079 19.1071 29.1358C18.8701 28.5636 18.8081 27.934 18.9289 27.3266C19.0497 26.7192 19.348 26.1613 19.7859 25.7234C20.2238 25.2855 20.7817 24.9872 21.3891 24.8664C21.9965 24.7456 22.6261 24.8076 23.1983 25.0446C23.7705 25.2816 24.2595 25.6829 24.6036 26.1979C24.9476 26.7128 25.1313 27.3182 25.1313 27.9375C25.1313 28.768 24.8014 29.5644 24.2141 30.1516C23.6269 30.7388 22.8305 31.0688 22 31.0688Z" fill="#5967D1" stroke="#5967D1" stroke-width="0.3"/>
</svg>
