<svg width="44" height="48" viewBox="0 0 44 48" fill="none" xmlns="http://www.w3.org/2000/svg">
<path d="M44 40.6649V25.4999C43.9998 25.2136 43.9276 24.932 43.79 24.6809C43.6695 24.4812 43.4889 24.3247 43.274 24.2339C43.0489 24.1392 42.8115 24.0766 42.569 24.0479C42.3132 24.016 42.0557 24 41.798 23.9999H41V9.35093C41.093 9.14692 41.228 8.90692 41.399 8.62492C41.57 8.34293 41.735 8.03092 41.891 7.68893C42.047 7.34393 42.188 7.02292 42.311 6.72892C42.42 6.50025 42.4842 6.25278 42.5 5.99992C42.4557 5.67484 42.3854 5.35382 42.29 5.03992C42.1502 4.54161 41.9931 4.04831 41.819 3.56092C41.6419 3.05988 41.4619 2.55988 41.279 2.06092C41.1518 1.72181 41.0357 1.37862 40.931 1.03192C40.8166 0.734222 40.6212 0.47444 40.367 0.281925C40.1173 0.0943018 39.8123 -0.00490941 39.5 -7.55079e-05H33.5C33.1796 0.013168 32.8699 0.119503 32.609 0.305925C32.3525 0.480362 32.1623 0.736116 32.069 1.03192C31.9498 1.38496 31.8248 1.73601 31.694 2.08492C31.5134 2.58159 31.3424 3.08168 31.181 3.58492C31.007 4.11592 30.851 4.60792 30.71 5.06392C30.569 5.51392 30.5 5.82892 30.5 5.99992C30.5 6.21892 30.56 6.46792 30.689 6.74992C30.812 7.03192 30.959 7.34393 31.133 7.68893C31.4119 8.2481 31.701 8.80219 32 9.35093V23.9999H31.202C30.9362 23.9986 30.6707 24.0146 30.407 24.0479C30.1617 24.0771 29.9232 24.1481 29.702 24.2579C29.4949 24.3582 29.318 24.5114 29.189 24.7019C29.0495 24.9438 28.9838 25.2212 29 25.4999V40.6649C29 41.6789 29.204 42.6329 29.609 43.5239C30.017 44.4149 30.563 45.1949 31.25 45.8669C32.6521 47.2396 34.5378 48.0057 36.5 47.9999C37.499 47.9999 38.453 47.8049 39.359 47.4149C40.2436 47.0381 41.0534 46.5057 41.75 45.8429C42.4426 45.184 43 44.3963 43.391 43.5239C43.7985 42.6262 44.0063 41.6508 44 40.6649ZM38 23.9999H35V8.99992C34.9995 8.76308 34.943 8.52971 34.835 8.31892L33.617 5.88292L34.577 2.99992H38.423L39.383 5.87992L38.165 8.31892C38.057 8.52971 38.0004 8.76308 38 8.99992V23.9999ZM32 29.9999V26.9999H41V29.9999H32ZM41 32.9999V40.4999C41.0142 41.0969 40.8943 41.6895 40.649 42.2339C40.4139 42.7757 40.0802 43.269 39.665 43.6889C38.8235 44.5253 37.6864 44.9963 36.5 44.9999C35.9029 45.0151 35.3101 44.8951 34.766 44.6489C33.9482 44.3057 33.2497 43.7292 32.7578 42.9912C32.2658 42.2533 32.0022 41.3868 32 40.4999V32.9999H41ZM11 1.62592C11.0003 1.37999 10.9402 1.13774 10.8249 0.920519C10.7096 0.703295 10.5426 0.517758 10.3387 0.380245C10.1348 0.242733 9.90022 0.157464 9.65561 0.131949C9.411 0.106433 9.16387 0.141453 8.93598 0.233925C6.52341 1.20974 4.44422 2.86195 2.94862 4.99172C1.45302 7.1215 0.604736 9.63809 0.505848 12.2387C0.40696 14.8392 1.06168 17.413 2.39122 19.6502C3.72077 21.8874 5.66848 23.6927 7.99998 24.8489V41.9999C7.99998 43.5912 8.63213 45.1173 9.75734 46.2426C10.8826 47.3678 12.4087 47.9999 14 47.9999C15.5913 47.9999 17.1174 47.3678 18.2426 46.2426C19.3678 45.1173 20 43.5912 20 41.9999V24.8519C22.3326 23.6966 24.2814 21.8916 25.6118 19.6542C26.9422 17.4169 27.5973 14.8426 27.4984 12.2415C27.3995 9.64037 26.5507 7.1233 25.0543 4.99344C23.5578 2.86358 21.4776 1.21176 19.064 0.236924C18.8361 0.144453 18.589 0.109433 18.3444 0.134948C18.0998 0.160464 17.8652 0.245732 17.6613 0.383245C17.4574 0.520758 17.2904 0.706296 17.1751 0.92352C17.0598 1.14074 16.9996 1.38299 17 1.62892V11.9999C17 12.7956 16.6839 13.5586 16.1213 14.1212C15.5587 14.6839 14.7956 14.9999 14 14.9999C13.2043 14.9999 12.4413 14.6839 11.8787 14.1212C11.3161 13.5586 11 12.7956 11 11.9999V1.62592ZM3.49998 12.7559C3.49998 9.18592 5.27899 6.03592 7.99998 4.13392V11.9939C7.99998 13.5852 8.63213 15.1113 9.75734 16.2366C10.8826 17.3618 12.4087 17.9939 14 17.9939C15.5913 17.9939 17.1174 17.3618 18.2426 16.2366C19.3678 15.1113 20 13.5852 20 11.9939V4.13392C21.5531 5.21522 22.7853 6.69607 23.5662 8.41993C24.3471 10.1438 24.6477 12.0466 24.4362 13.9273C24.2248 15.8079 23.5091 17.5964 22.3649 19.1039C21.2207 20.6113 19.6905 21.7815 17.936 22.4909C17.6595 22.6031 17.4228 22.7952 17.2561 23.0426C17.0893 23.29 17.0002 23.5816 17 23.8799V41.9999C17 42.7956 16.6839 43.5586 16.1213 44.1212C15.5587 44.6839 14.7956 44.9999 14 44.9999C13.2043 44.9999 12.4413 44.6839 11.8787 44.1212C11.3161 43.5586 11 42.7956 11 41.9999V23.8799C10.9998 23.5816 10.9106 23.29 10.7439 23.0426C10.5772 22.7952 10.3405 22.6031 10.064 22.4909C8.12387 21.706 6.46249 20.3594 5.29295 18.6238C4.12342 16.8882 3.49907 14.8428 3.49998 12.7499V12.7559Z" fill="#5967D1"/>
</svg>
