<svg width="58" height="58" viewBox="0 0 58 58" fill="none" xmlns="http://www.w3.org/2000/svg">
<path d="M29 36.5C27.5166 36.5 26.0666 36.0601 24.8332 35.236C23.5999 34.4119 22.6386 33.2406 22.0709 31.8701C21.5032 30.4997 21.3547 28.9917 21.6441 27.5368C21.9335 26.082 22.6478 24.7456 23.6967 23.6967C24.7456 22.6478 26.082 21.9335 27.5368 21.6441C28.9917 21.3547 30.4997 21.5032 31.8701 22.0709C33.2406 22.6386 34.4119 23.5999 35.236 24.8332C36.0601 26.0666 36.5 27.5166 36.5 29C36.4975 30.9884 35.7066 32.8946 34.3006 34.3006C32.8946 35.7066 30.9884 36.4975 29 36.5ZM29 25.25C28.2583 25.25 27.5333 25.4699 26.9166 25.882C26.2999 26.294 25.8193 26.8797 25.5355 27.5649C25.2516 28.2502 25.1774 29.0042 25.3221 29.7316C25.4668 30.459 25.8239 31.1272 26.3484 31.6517C26.8728 32.1761 27.541 32.5333 28.2684 32.6779C28.9958 32.8226 29.7498 32.7484 30.4351 32.4646C31.1203 32.1807 31.706 31.7001 32.118 31.0834C32.5301 30.4667 32.75 29.7417 32.75 29C32.749 28.0057 32.3536 27.0525 31.6506 26.3494C30.9475 25.6464 29.9943 25.251 29 25.25ZM8.375 36.5C6.89164 36.5 5.4416 36.0601 4.20823 35.236C2.97486 34.4119 2.01356 33.2406 1.44591 31.8701C0.87825 30.4997 0.729725 28.9917 1.01911 27.5368C1.3085 26.082 2.02281 24.7456 3.0717 23.6967C4.1206 22.6478 5.45697 21.9335 6.91183 21.6441C8.36668 21.3547 9.87468 21.5032 11.2451 22.0709C12.6156 22.6386 13.7869 23.5999 14.611 24.8332C15.4351 26.0666 15.875 27.5166 15.875 29C15.8725 30.9884 15.0815 32.8946 13.6756 34.3006C12.2696 35.7066 10.3634 36.4975 8.375 36.5ZM8.375 25.25C7.63332 25.25 6.9083 25.4699 6.29162 25.882C5.67493 26.294 5.19428 26.8797 4.91046 27.5649C4.62663 28.2502 4.55236 29.0042 4.69706 29.7316C4.84175 30.459 5.19891 31.1272 5.72335 31.6517C6.2478 32.1761 6.91599 32.5333 7.64341 32.6779C8.37084 32.8226 9.12484 32.7484 9.81007 32.4646C10.4953 32.1807 11.081 31.7001 11.493 31.0834C11.9051 30.4667 12.125 29.7417 12.125 29C12.124 28.0057 11.7286 27.0525 11.0256 26.3494C10.3225 25.6464 9.36926 25.251 8.375 25.25ZM17.75 57.125C16.2666 57.125 14.8166 56.6851 13.5832 55.861C12.3499 55.0369 11.3886 53.8656 10.8209 52.4951C10.2533 51.1247 10.1047 49.6167 10.3941 48.1618C10.6835 46.707 11.3978 45.3706 12.4467 44.3217C13.4956 43.2728 14.832 42.5585 16.2868 42.2691C17.7417 41.9797 19.2497 42.1283 20.6201 42.6959C21.9906 43.2636 23.1619 44.2249 23.986 45.4582C24.8101 46.6916 25.25 48.1416 25.25 49.625C25.2475 51.6134 24.4565 53.5196 23.0506 54.9256C21.6446 56.3316 19.7384 57.1225 17.75 57.125ZM17.75 45.875C17.0083 45.875 16.2833 46.0949 15.6666 46.507C15.0499 46.919 14.5693 47.5047 14.2855 48.1899C14.0016 48.8752 13.9274 49.6292 14.0721 50.3566C14.2168 51.084 14.5739 51.7522 15.0984 52.2767C15.6228 52.8011 16.291 53.1583 17.0184 53.3029C17.7458 53.4476 18.4998 53.3734 19.1851 53.0896C19.8703 52.8057 20.456 52.3251 20.868 51.7084C21.2801 51.0917 21.5 50.3667 21.5 49.625C21.499 48.6307 21.1036 47.6775 20.4006 46.9744C19.6975 46.2714 18.7443 45.876 17.75 45.875ZM40.25 57.125C38.7666 57.125 37.3166 56.6851 36.0832 55.861C34.8499 55.0369 33.8886 53.8656 33.3209 52.4951C32.7532 51.1247 32.6047 49.6167 32.8941 48.1618C33.1835 46.707 33.8978 45.3706 34.9467 44.3217C35.9956 43.2728 37.332 42.5585 38.7868 42.2691C40.2417 41.9797 41.7497 42.1283 43.1201 42.6959C44.4906 43.2636 45.6619 44.2249 46.486 45.4582C47.3101 46.6916 47.75 48.1416 47.75 49.625C47.7475 51.6134 46.9566 53.5196 45.5506 54.9256C44.1446 56.3316 42.2384 57.1225 40.25 57.125ZM40.25 45.875C39.5083 45.875 38.7833 46.0949 38.1666 46.507C37.5499 46.919 37.0693 47.5047 36.7855 48.1899C36.5016 48.8752 36.4274 49.6292 36.5721 50.3566C36.7168 51.084 37.0739 51.7522 37.5984 52.2767C38.1228 52.8011 38.791 53.1583 39.5184 53.3029C40.2458 53.4476 40.9998 53.3734 41.6851 53.0896C42.3703 52.8057 42.956 52.3251 43.368 51.7084C43.7801 51.0917 44 50.3667 44 49.625C43.999 48.6307 43.6036 47.6775 42.9006 46.9744C42.1975 46.2714 41.2443 45.876 40.25 45.875ZM49.625 36.5C48.1416 36.5 46.6916 36.0601 45.4582 35.236C44.2249 34.4119 43.2636 33.2406 42.6959 31.8701C42.1283 30.4997 41.9797 28.9917 42.2691 27.5368C42.5585 26.082 43.2728 24.7456 44.3217 23.6967C45.3706 22.6478 46.707 21.9335 48.1618 21.6441C49.6167 21.3547 51.1247 21.5032 52.4951 22.0709C53.8656 22.6386 55.0369 23.5999 55.861 24.8332C56.6851 26.0666 57.125 27.5166 57.125 29C57.1225 30.9884 56.3316 32.8946 54.9256 34.3006C53.5196 35.7066 51.6134 36.4975 49.625 36.5ZM49.625 25.25C48.8833 25.25 48.1583 25.4699 47.5416 25.882C46.9249 26.294 46.4443 26.8797 46.1605 27.5649C45.8766 28.2502 45.8024 29.0042 45.9471 29.7316C46.0918 30.459 46.4489 31.1272 46.9734 31.6517C47.4978 32.1761 48.166 32.5333 48.8934 32.6779C49.6208 32.8226 50.3748 32.7484 51.0601 32.4646C51.7453 32.1807 52.331 31.7001 52.743 31.0834C53.1551 30.4667 53.375 29.7417 53.375 29C53.374 28.0057 52.9786 27.0525 52.2756 26.3494C51.5725 25.6464 50.6193 25.251 49.625 25.25ZM40.25 15.875C38.7666 15.875 37.3166 15.4351 36.0832 14.611C34.8499 13.7869 33.8886 12.6156 33.3209 11.2451C32.7532 9.87468 32.6047 8.36668 32.8941 6.91183C33.1835 5.45697 33.8978 4.1206 34.9467 3.0717C35.9956 2.02281 37.332 1.3085 38.7868 1.01911C40.2417 0.729725 41.7497 0.87825 43.1201 1.44591C44.4906 2.01356 45.6619 2.97486 46.486 4.20823C47.3101 5.4416 47.75 6.89164 47.75 8.375C47.7475 10.3634 46.9566 12.2696 45.5506 13.6756C44.1446 15.0815 42.2384 15.8725 40.25 15.875ZM40.25 4.625C39.5083 4.625 38.7833 4.84494 38.1666 5.25699C37.5499 5.66905 37.0693 6.25472 36.7855 6.93994C36.5016 7.62516 36.4274 8.37916 36.5721 9.10659C36.7168 9.83402 37.0739 10.5022 37.5984 11.0267C38.1228 11.5511 38.791 11.9083 39.5184 12.0529C40.2458 12.1976 40.9998 12.1234 41.6851 11.8396C42.3703 11.5557 42.956 11.0751 43.368 10.4584C43.7801 9.84171 44 9.11668 44 8.375C43.999 7.38075 43.6036 6.4275 42.9006 5.72445C42.1975 5.0214 41.2443 4.626 40.25 4.625ZM17.75 15.875C16.2666 15.875 14.8166 15.4351 13.5832 14.611C12.3499 13.7869 11.3886 12.6156 10.8209 11.2451C10.2533 9.87468 10.1047 8.36668 10.3941 6.91183C10.6835 5.45697 11.3978 4.1206 12.4467 3.0717C13.4956 2.02281 14.832 1.3085 16.2868 1.01911C17.7417 0.729725 19.2497 0.87825 20.6201 1.44591C21.9906 2.01356 23.1619 2.97486 23.986 4.20823C24.8101 5.4416 25.25 6.89164 25.25 8.375C25.2475 10.3634 24.4565 12.2696 23.0506 13.6756C21.6446 15.0815 19.7384 15.8725 17.75 15.875ZM17.75 4.625C17.0083 4.625 16.2833 4.84494 15.6666 5.25699C15.0499 5.66905 14.5693 6.25472 14.2855 6.93994C14.0016 7.62516 13.9274 8.37916 14.0721 9.10659C14.2168 9.83402 14.5739 10.5022 15.0984 11.0267C15.6228 11.5511 16.291 11.9083 17.0184 12.0529C17.7458 12.1976 18.4998 12.1234 19.1851 11.8396C19.8703 11.5557 20.456 11.0751 20.868 10.4584C21.2801 9.84171 21.5 9.11668 21.5 8.375C21.499 7.38075 21.1036 6.4275 20.4006 5.72445C19.6975 5.0214 18.7443 4.626 17.75 4.625Z" fill="#5967D1"/>
</svg>
