<svg width="12" height="8" viewBox="0 0 12 8" fill="none" xmlns="http://www.w3.org/2000/svg">
<path d="M6.00254 5.1559L1.51317 0.666736C1.38985 0.543127 1.22498 0.475127 1.04917 0.475127C0.873268 0.475127 0.708488 0.543127 0.584976 0.666736L0.191805 1.0601C0.0680976 1.18352 0 1.34849 0 1.5243C0 1.7001 0.0680976 1.86488 0.191805 1.98839L5.53678 7.33345C5.66068 7.45745 5.82624 7.52536 6.00224 7.52487C6.17902 7.52536 6.34439 7.45755 6.46839 7.33345L11.8082 1.99337C11.9319 1.86986 12 1.70508 12 1.52917C12 1.35337 11.9319 1.18859 11.8082 1.06498L11.415 0.671712C11.1591 0.41581 10.7425 0.41581 10.4867 0.671712L6.00254 5.1559Z" fill="#fff"/>
</svg>
