<svg width="62" height="64" viewBox="0 0 62 64" fill="none" xmlns="http://www.w3.org/2000/svg">
<path d="M28.3633 0.359375H33.6367C34.1055 0.359375 34.3398 0.59375 34.3398 1.0625V62.9375C34.3398 63.4062 34.1055 63.6406 33.6367 63.6406H28.3633C27.8945 63.6406 27.6602 63.4062 27.6602 62.9375V1.0625C27.6602 0.59375 27.8945 0.359375 28.3633 0.359375Z" fill="white"/>
<path d="M1.46875 28.6602H60.5312C61 28.6602 61.2344 28.8945 61.2344 29.3633V34.6367C61.2344 35.1055 61 35.3398 60.5312 35.3398H1.46875C1 35.3398 0.765625 35.1055 0.765625 34.6367V29.3633C0.765625 28.8945 1 28.6602 1.46875 28.6602Z" fill="white"/>
</svg>
